#!OML:ASF X:\für Bonn\!DataBase\2005_08_11_Bastian_Final\c3d\Bastian.ASF
:FULLY-SPECIFIED
:DEGREES
172
root -0.143928 17.7045 -8.97105 168.729 -59.1838 -181.903
lowerback 13.4269 -5.00699 2.95727
upperback 5.39197 -6.68924 3.27792
thorax -1.72745 -3.55568 2.74775
lowerneck 4.84134 -14.4289 -6.94561
upperneck -17.1057 -18.7162 15.658
head -3.66271 -10.078 6.43696
rclavicle 5.18828e-014 -7.63333e-014
rhumerus -194.63 -198.332 134.396
rradius 114.001
rwrist -143.427
rhand -6.68565 9.74682
rfingers 7.12502
rthumb 19.1731 -19.3281
lclavicle 5.18828e-014 -7.63333e-014
lhumerus 62.5359 -33.6346 44.0209
lradius 78.0587
lwrist 222.561
lhand -21.2354 21.457
lfingers 7.12502
lthumb 5.14703 51.3745
rfemur -0.259533 -4.02092 19.8288
rtibia 34.7552
rfoot -16.5825 -17.2687
rtoes 3.24601
lfemur 1.63903 2.11713 -4.61177
ltibia 39.9772
lfoot 4.56015 -4.69697
ltoes -36.2497
173
root -0.118386 17.6818 -8.9448 167.974 -58.9492 -181.118
lowerback 13.6022 -4.97971 3.4032
upperback 5.54965 -6.62478 3.52492
thorax -1.67149 -3.53622 2.75896
lowerneck 4.51706 -14.4201 -6.94294
upperneck -17.4651 -18.6937 15.696
head -3.71639 -10.079 6.44451
rclavicle 2.56432e-014 -1.43125e-014
rhumerus -196.085 -198.913 132.094
rradius 112.174
rwrist -143.727
rhand -7.06872 9.90957
rfingers 7.12502
rthumb 18.8047 -19.2015
lclavicle 2.56432e-014 -1.43125e-014
lhumerus 60.6909 -35.4398 44.8577
lradius 78.3618
lwrist 221.629
lhand -22.1344 20.6481
lfingers 7.12502
lthumb 4.27898 50.5848
rfemur -0.435507 -4.58721 20.1335
rtibia 34.9317
rfoot -16.4638 -16.7426
rtoes 2.77369
lfemur 1.51181 1.86639 -4.31956
ltibia 40.4041
lfoot 3.99102 -4.68662
ltoes -35.6974
174
root -0.0922705 17.6531 -8.91702 167.273 -58.7043 -180.331
lowerback 13.7479 -4.9517 3.86435
upperback 5.67943 -6.5549 3.75754
thorax -1.63129 -3.5121 2.74507
lowerneck 4.19231 -14.421 -6.85064
upperneck -17.8251 -18.6839 15.6829
head -3.7838 -10.088 6.42661
rclavicle -9.34288e-015 -1.11319e-014
rhumerus -197.494 -199.224 129.745
rradius 110.187
rwrist -143.973
rhand -7.79945 9.85117
rfingers 7.12502
rthumb 18.1018 -19.3265
lclavicle -9.34288e-015 -1.11319e-014
lhumerus 58.8271 -37.2784 45.8071
lradius 78.4622
lwrist 220.618
lhand -22.9057 19.7892
lfingers 7.12502
lthumb 3.53417 49.7397
rfemur -0.702483 -5.15336 20.4416
rtibia 35.1184
rfoot -16.3315 -16.2038
rtoes 2.35269
lfemur 1.30963 1.63004 -4.02743
ltibia 40.8624
lfoot 3.39788 -4.71119
ltoes -35.187
175
root -0.0669275 17.6316 -8.89063 166.578 -58.4326 -179.559
lowerback 13.9073 -4.93546 4.30103
upperback 5.82182 -6.50733 4.01072
thorax -1.57805 -3.50135 2.77019
lowerneck 3.79635 -14.4071 -6.81461
upperneck -18.1229 -18.6629 15.6463
head -3.81913 -10.0847 6.39845
rclavicle 3.20043e-014 4.45278e-014
rhumerus -198.696 -199.333 127.505
rradius 107.991
rwrist -144.21
rhand -8.77415 9.47272
rfingers 7.12502
rthumb 17.1638 -19.7892
lclavicle 3.20043e-014 4.45278e-014
lhumerus 56.7757 -39.0021 47.0634
lradius 78.4152
lwrist 219.473
lhand -23.7249 19.0865
lfingers 7.12502
lthumb 2.74306 49.0486
rfemur -0.943357 -5.7292 20.7331
rtibia 35.2888
rfoot -16.225 -15.5764
rtoes 2.22622
lfemur 1.14141 1.39203 -3.75252
ltibia 41.3037
lfoot 2.81202 -4.80294
ltoes -34.9212
176
root -0.0428609 17.6112 -8.86445 165.964 -58.1295 -178.847
lowerback 14.0435 -4.91306 4.75075
upperback 5.95465 -6.4487 4.2205
thorax -1.52814 -3.48271 2.73981
lowerneck 3.3859 -14.3992 -6.70962
upperneck -18.3923 -18.6483 15.6053
head -3.85043 -10.088 6.35706
rclavicle -9.50191e-014 1.43125e-014
rhumerus -199.796 -199.285 125.27
rradius 105.646
rwrist -144.245
rhand -9.94572 9.27984
rfingers 7.12502
rthumb 16.0359 -20.0765
lclavicle -9.50191e-014 1.43125e-014
lhumerus 54.492 -40.7281 48.5986
lradius 78.2146
lwrist 218.254
lhand -24.5391 18.5163
lfingers 7.12502
lthumb 1.95669 48.487
rfemur -1.21993 -6.30638 20.9914
rtibia 35.4699
rfoot -16.0754 -14.903
rtoes 2.2016
lfemur 0.967614 1.16361 -3.52409
ltibia 41.7371
lfoot 2.22194 -4.94393
ltoes -34.8127
177
root -0.0185377 17.5916 -8.83815 165.459 -57.7993 -178.258
lowerback 14.1928 -4.87477 5.11827
upperback 6.09177 -6.3798 4.42887
thorax -1.47156 -3.46036 2.75249
lowerneck 2.91612 -14.3868 -6.60737
upperneck -18.6202 -18.6322 15.5386
head -3.86247 -10.0873 6.30055
rclavicle 1.17879e-013 -2.22639e-014
rhumerus -200.792 -199.147 123.15
rradius 103.255
rwrist -144.125
rhand -11.2361 9.37369
rfingers 7.12502
rthumb 14.7931 -20.0783
lclavicle 1.17879e-013 -2.22639e-014
lhumerus 52.2088 -42.378 50.1448
lradius 77.6988
lwrist 217.24
lhand -25.1068 18.0161
lfingers 7.12502
lthumb 1.40841 47.9912
rfemur -1.49702 -6.8412 21.198
rtibia 35.6274
rfoot -15.9075 -14.2026
rtoes 2.16944
lfemur 0.823522 0.972263 -3.36813
ltibia 42.1302
lfoot 1.64127 -5.19104
ltoes -34.8412
178
root 0.00472541 17.573 -8.81163 165.045 -57.4419 -177.778
lowerback 14.3574 -4.81822 5.43609
upperback 6.21285 -6.28804 4.61185
thorax -1.43763 -3.42586 2.76489
lowerneck 2.4916 -14.3803 -6.45534
upperneck -18.8315 -18.6263 15.4409
head -3.88454 -10.0923 6.23202
rclavicle 5.24792e-014 -2.38542e-014
rhumerus -201.732 -198.794 121.134
rradius 100.643
rwrist -144.114
rhand -12.1775 9.33274
rfingers 7.12502
rthumb 13.8859 -20.1837
lclavicle 5.24792e-014 -2.38542e-014
lhumerus 49.7983 -43.9945 51.7924
lradius 76.9378
lwrist 216.342
lhand -25.4165 17.524
lfingers 7.12502
lthumb 1.10926 47.5009
rfemur -1.7746 -7.36756 21.3441
rtibia 35.7967
rfoot -15.7436 -13.4842
rtoes 2.02931
lfemur 0.712999 0.728936 -3.30673
ltibia 42.5146
lfoot 1.07583 -5.44948
ltoes -34.8587
179
root 0.0277997 17.5545 -8.78644 164.676 -57.0635 -177.343
lowerback 14.5238 -4.76087 5.72169
upperback 6.31695 -6.19508 4.77234
thorax -1.42151 -3.38985 2.77244
lowerneck 2.11433 -14.3659 -6.20984
upperneck -19.0651 -18.6139 15.279
head -3.93875 -10.097 6.14054
rclavicle -8.98507e-014 1.00187e-013
rhumerus -202.576 -198.278 119.239
rradius 97.7995
rwrist -144.171
rhand -13.0918 9.25642
rfingers 7.12502
rthumb 13.0047 -20.3182
lclavicle -8.98507e-014 1.00187e-013
lhumerus 47.0216 -45.4965 53.786
lradius 76.0631
lwrist 215.371
lhand -25.6028 16.8914
lfingers 7.12502
lthumb 0.929327 46.8691
rfemur -2.05777 -7.79495 21.4989
rtibia 35.979
rfoot -15.6063 -12.7777
rtoes 2.23133
lfemur 0.619593 0.466631 -3.28403
ltibia 42.897
lfoot 0.525377 -5.71443
ltoes -34.7914
180
root 0.0504064 17.5367 -8.75942 164.335 -56.6837 -176.937
lowerback 14.7008 -4.70735 6.00766
upperback 6.4145 -6.10437 4.91786
thorax -1.41885 -3.35442 2.76593
lowerneck 1.73053 -14.3492 -5.95918
upperneck -19.2559 -18.6004 15.124
head -3.97884 -10.1009 6.04666
rclavicle 7.83212e-014 -7.79236e-014
rhumerus -203.371 -197.665 117.47
rradius 94.8536
rwrist -144.08
rhand -14.2 9.25179
rfingers 7.12502
rthumb 11.9362 -20.3879
lclavicle 7.83212e-014 -7.79236e-014
lhumerus 43.7856 -46.8245 56.198
lradius 75.1854
lwrist 214.325
lhand -25.722 16.1476
lfingers 7.12502
lthumb 0.814262 46.1257
rfemur -2.3445 -8.21471 21.6361
rtibia 36.1619
rfoot -15.4859 -12.0678
rtoes 2.45223
lfemur 0.53419 0.152026 -3.30624
ltibia 43.281
lfoot -0.0234699 -6.01616
ltoes -34.6315
181
root 0.0715296 17.5205 -8.73221 164.057 -56.2647 -176.631
lowerback 14.9069 -4.63726 6.24354
upperback 6.51556 -5.99513 5.04395
thorax -1.42486 -3.31025 2.76584
lowerneck 1.32296 -14.3357 -5.65483
upperneck -19.4003 -18.5976 14.9046
head -4.01279 -10.1073 5.92252
rclavicle -4.01545e-014 1.1291e-013
rhumerus -204.081 -197.014 115.817
rradius 91.801
rwrist -143.655
rhand -15.216 9.36536
rfingers 7.12502
rthumb 10.9564 -20.3288
lclavicle -4.01545e-014 1.1291e-013
lhumerus 40.2568 -47.9852 58.8578
lradius 74.2412
lwrist 213.151
lhand -25.5628 15.4928
lfingers 7.12502
lthumb 0.968043 45.4703
rfemur -2.58372 -8.57753 21.7303
rtibia 36.3154
rfoot -15.3592 -11.3738
rtoes 2.61392
lfemur 0.509047 -0.121174 -3.38645
ltibia 43.6478
lfoot -0.561941 -6.36504
ltoes -34.658
182
root 0.0917279 17.5058 -8.70437 163.842 -55.8227 -176.37
lowerback 15.0858 -4.55924 6.48048
upperback 6.60812 -5.8742 5.14819
thorax -1.42742 -3.25856 2.73772
lowerneck 0.973375 -14.3269 -5.35972
upperneck -19.5943 -18.6016 14.7302
head -4.06474 -10.1229 5.82108
rclavicle -6.12257e-014 1.24042e-013
rhumerus -204.735 -196.293 114.257
rradius 88.6939
rwrist -143.038
rhand -15.7623 9.52187
rfingers 7.12502
rthumb 10.4294 -20.1994
lclavicle -6.12257e-014 1.24042e-013
lhumerus 36.4628 -48.9435 61.7718
lradius 73.11
lwrist 212.024
lhand -25.2305 15.1895
lfingers 7.12502
lthumb 1.28895 45.1653
rfemur -2.83991 -8.91803 21.8146
rtibia 36.4727
rfoot -15.2286 -10.6496
rtoes 2.83604
lfemur 0.477477 -0.405898 -3.50382
ltibia 44.0099
lfoot -1.05265 -6.6962
ltoes -34.4861
